<?xml version="1.0"?>
<svg xmlns="http://www.w3.org/2000/svg" xmlnsXlink="http://www.w3.org/1999/xlink" xmlnsSvgjs="http://svgjs.com/svgjs" version="1.1" width="512" height="512" x="0" y="0" viewBox="0 0 180.226 180.226" style="enable-background:new 0 0 512 512" xmlSpace="preserve" class=""><g>
<path xmlns="http://www.w3.org/2000/svg" d="M180.226,109.95l-25.003-41.333h-22.432c0.001-0.053,0.008-0.104,0.008-0.158v-4.433h22.567v-9.796  c0-20.681-16.825-37.507-37.507-37.507H62.365c-20.681,0-37.507,16.826-37.507,37.507v9.796h22.567v4.433  c0,0.053,0.007,0.105,0.008,0.158H25.001L0,109.95h0.094v5.579v7.419v11.909v21.676v6.97h8v-6.97v-7.837  c2.359,1.37,5.089,2.168,8.008,2.168h148.02c2.919,0,5.65-0.798,8.009-2.169v7.837v6.97h8v-6.97v-21.676v-11.909v-7.419v-5.579  H180.226z M55.426,50.179c0-0.551,0.449-1,1-1h65.959c1.331,0,2.414,1.083,2.414,2.414v16.865c0,1.331-1.083,2.414-2.414,2.414  H57.84c-1.331,0-2.414-1.083-2.414-2.414V50.179z M169.341,115.529H10.884c-1.541,0-2.79-1.249-2.79-2.79l0,0  c0-1.541,1.249-2.79,2.79-2.79h158.458c1.541,0,2.79,1.249,2.79,2.79l0,0C172.131,114.28,170.882,115.529,169.341,115.529z" fill="#ef5261" data-original="#000000" style="" class=""/>
<g xmlns="http://www.w3.org/2000/svg">
</g>
<g xmlns="http://www.w3.org/2000/svg">
</g>
<g xmlns="http://www.w3.org/2000/svg">
</g>
<g xmlns="http://www.w3.org/2000/svg">
</g>
<g xmlns="http://www.w3.org/2000/svg">
</g>
<g xmlns="http://www.w3.org/2000/svg">
</g>
<g xmlns="http://www.w3.org/2000/svg">
</g>
<g xmlns="http://www.w3.org/2000/svg">
</g>
<g xmlns="http://www.w3.org/2000/svg">
</g>
<g xmlns="http://www.w3.org/2000/svg">
</g>
<g xmlns="http://www.w3.org/2000/svg">
</g>
<g xmlns="http://www.w3.org/2000/svg">
</g>
<g xmlns="http://www.w3.org/2000/svg">
</g>
<g xmlns="http://www.w3.org/2000/svg">
</g>
<g xmlns="http://www.w3.org/2000/svg">
</g>
</g></svg>
