<?xml version="1.0"?>
<svg xmlns="http://www.w3.org/2000/svg" xmlns:xlink="http://www.w3.org/1999/xlink" xmlns:svgjs="http://svgjs.com/svgjs" version="1.1" width="512" height="512" x="0" y="0" viewBox="0 0 396.817 396.817" style="enable-background:new 0 0 512 512" xml:space="preserve" class=""><g>
<g xmlns="http://www.w3.org/2000/svg">
	<g>
		<g>
			<rect x="0" y="30.441" width="313.469" height="26.122" fill="#ffffff" data-original="#000000" style="" class=""/>
			<path d="M6.269,72.237L126.955,194.49c1.567,1.567,3.657,3.657,3.657,5.747v166.139l52.245-28.212V200.237     c0-2.09,2.09-4.18,3.657-5.747L307.2,72.237H6.269z" fill="#ffffff" data-original="#000000" style="" class=""/>
			<path d="M377.731,202.327c-29.278-26.988-74.89-25.131-101.878,4.147c-25.448,27.607-25.448,70.124,0,97.731     c29.278,26.988,74.89,25.131,101.878-4.147C403.178,272.45,403.178,229.934,377.731,202.327z M365.714,281.216     c3.03,2.672,3.32,7.294,0.648,10.324c-0.202,0.229-0.419,0.446-0.648,0.648c-1.554,1.446-3.627,2.2-5.747,2.09     c-1.962,0.091-3.867-0.671-5.224-2.09l-27.69-27.69l-27.69,27.69c-3.315,2.813-8.179,2.813-11.494,0     c-2.529-3.22-2.529-7.751,0-10.971l27.69-27.69l-27.69-27.69c-2.529-3.22-2.529-7.751,0-10.971c3.224-3.052,8.27-3.052,11.494,0     l27.69,27.69l27.69-27.69c2.597-3.463,7.509-4.164,10.971-1.567c3.463,2.597,4.164,7.509,1.567,10.971     c-0.445,0.594-0.973,1.122-1.567,1.567l-27.69,27.69L365.714,281.216z" fill="#ffffff" data-original="#000000" style="" class=""/>
		</g>
	</g>
</g>
<g xmlns="http://www.w3.org/2000/svg">
</g>
<g xmlns="http://www.w3.org/2000/svg">
</g>
<g xmlns="http://www.w3.org/2000/svg">
</g>
<g xmlns="http://www.w3.org/2000/svg">
</g>
<g xmlns="http://www.w3.org/2000/svg">
</g>
<g xmlns="http://www.w3.org/2000/svg">
</g>
<g xmlns="http://www.w3.org/2000/svg">
</g>
<g xmlns="http://www.w3.org/2000/svg">
</g>
<g xmlns="http://www.w3.org/2000/svg">
</g>
<g xmlns="http://www.w3.org/2000/svg">
</g>
<g xmlns="http://www.w3.org/2000/svg">
</g>
<g xmlns="http://www.w3.org/2000/svg">
</g>
<g xmlns="http://www.w3.org/2000/svg">
</g>
<g xmlns="http://www.w3.org/2000/svg">
</g>
<g xmlns="http://www.w3.org/2000/svg">
</g>
</g></svg>
