<?xml version="1.0" encoding="iso-8859-1"?>
<!-- Generator: Adobe Illustrator 19.0.0, SVG Export Plug-In . SVG Version: 6.00 Build 0)  -->
<svg version="1.1" id="Capa_1" xmlns="http://www.w3.org/2000/svg" xmlns:xlink="http://www.w3.org/1999/xlink" x="0px" y="0px"
	 viewBox="0 0 511.96 511.96" style="enable-background:new 0 0 511.96 511.96;" xml:space="preserve">
<circle style="fill:#F4D44E;" cx="256" cy="255.96" r="255.96"/>
<path style="fill:#E8C842;" d="M172.398,451.935C11.247,358.894,1.46,131.055,150.506,23.523
	C103.321,44.752,62.118,80.456,34.272,128.687c-70.551,122.199-28.683,278.452,93.515,349.004
	c89.928,51.919,198.295,42.951,277.38-14.107C332.804,496.142,246.364,494.639,172.398,451.935z"/>
<g>
	<path style="fill:#656566;" d="M354.196,352.808H157.804c-4.267,0-7.727-3.459-7.727-7.727c0-4.268,3.46-7.727,7.727-7.727h196.392
		c4.267,0,7.727,3.459,7.727,7.727C361.923,349.349,358.463,352.808,354.196,352.808z"/>
	<ellipse style="fill:#656566;" cx="174.962" cy="219.819" rx="23.349" ry="29.769"/>
</g>
<path style="fill:#4F4F51;" d="M192.822,237.271c-12.894,0-23.349-13.328-23.349-29.769c0-6.508,1.643-12.523,4.422-17.423
	c-12.398,0.713-22.28,13.751-22.28,29.735c0,16.441,10.453,29.769,23.349,29.769c7.79,0,14.685-4.87,18.927-12.346
	C193.536,237.257,193.18,237.271,192.822,237.271z"/>
<ellipse style="fill:#656566;" cx="337.038" cy="219.819" rx="23.349" ry="29.769"/>
<path style="fill:#4F4F51;" d="M354.893,237.271c-12.894,0-23.349-13.328-23.349-29.769c0-6.508,1.643-12.523,4.422-17.423
	c-12.398,0.713-22.28,13.751-22.28,29.735c0,16.441,10.453,29.769,23.349,29.769c7.79,0,14.685-4.87,18.927-12.346
	C355.608,237.257,355.252,237.271,354.893,237.271z"/>
<g>
</g>
<g>
</g>
<g>
</g>
<g>
</g>
<g>
</g>
<g>
</g>
<g>
</g>
<g>
</g>
<g>
</g>
<g>
</g>
<g>
</g>
<g>
</g>
<g>
</g>
<g>
</g>
<g>
</g>
</svg>
